<?xml version="1.0" standalone="no"?>
<!DOCTYPE svg PUBLIC "-//W3C//DTD SVG 20010904//EN"
 "http://www.w3.org/TR/2001/REC-SVG-20010904/DTD/svg10.dtd">
<svg version="1.0" xmlns="http://www.w3.org/2000/svg"
 width="986.000000pt" height="986.000000pt" viewBox="0 0 986.000000 986.000000"
 preserveAspectRatio="xMidYMid meet">
<metadata>
Created by potrace 1.11, written by Peter Selinger 2001-2013
</metadata>
<g transform="translate(0.000000,986.000000) scale(0.100000,-0.100000)"
fill="#000000" stroke="none">
<path d="M4797 9655 c-583 -58 -1102 -206 -1607 -459 -523 -262 -974 -612
-1373 -1066 -891 -1013 -1274 -2407 -1031 -3745 25 -137 66 -323 79 -357 5
-13 -4 -18 -48 -28 -31 -6 -91 -28 -134 -49 -74 -37 -124 -71 -343 -240 -119
-92 -193 -130 -269 -137 l-58 -7 -7 -90 c-3 -49 -6 -113 -6 -140 l0 -50 87 6
c159 10 244 53 501 251 181 139 253 180 320 180 l45 1 76 -190 c42 -104 83
-201 90 -214 12 -22 12 -23 -5 -17 -65 25 -145 38 -214 34 -145 -9 -276 -74
-478 -235 -186 -149 -258 -190 -352 -200 -56 -5 -60 -7 -60 -32 0 -14 -3 -77
-7 -138 l-6 -113 64 0 c142 0 263 53 454 198 330 253 387 275 532 202 32 -16
132 -85 223 -153 135 -101 172 -134 204 -183 54 -82 223 -305 290 -384 31 -36
56 -69 56 -74 0 -18 -109 3 -168 33 -33 17 -128 81 -211 143 -172 130 -235
170 -323 205 -93 38 -174 49 -260 36 -142 -21 -230 -68 -463 -251 -157 -124
-241 -170 -323 -178 l-59 -7 -7 -90 c-3 -49 -6 -113 -6 -140 l0 -50 87 6 c159
10 244 53 501 251 192 147 253 181 332 181 78 0 151 -39 340 -180 189 -142
262 -186 362 -219 121 -41 262 -33 380 20 l38 17 92 -89 c618 -595 1479 -1020
2343 -1158 411 -66 903 -74 1305 -22 55 8 103 15 105 18 2 2 -5 64 -15 138
-11 74 -20 147 -20 162 0 15 -3 29 -7 31 -5 2 -80 -4 -168 -15 -212 -24 -625
-31 -831 -12 -633 57 -1245 258 -1786 585 -227 137 -484 331 -650 488 l-80 76
69 51 c112 84 167 108 243 108 55 0 75 -6 136 -38 39 -20 120 -75 180 -121
276 -212 386 -265 549 -265 135 1 244 54 490 239 199 150 267 186 350 186 78
-1 143 -35 296 -157 258 -204 368 -259 549 -274 l80 -7 0 145 c0 144 0 145
-22 144 -107 -7 -211 43 -394 187 -254 200 -350 247 -508 247 -163 0 -267 -50
-559 -271 -277 -210 -315 -208 -632 31 -246 186 -389 248 -550 237 -129 -8
-233 -55 -398 -180 -66 -50 -81 -57 -92 -46 -7 8 -52 61 -99 118 l-86 104 97
48 c66 32 155 90 271 178 209 159 256 185 333 185 80 1 187 -56 379 -199 240
-181 337 -225 491 -225 146 0 234 42 500 242 263 197 320 215 460 146 41 -21
133 -83 204 -139 251 -195 349 -244 523 -256 l82 -6 0 141 0 140 -62 7 c-113
13 -175 47 -379 206 -208 162 -317 215 -464 226 -167 11 -273 -37 -578 -268
-269 -203 -319 -204 -578 -7 -231 175 -313 223 -445 259 -61 17 -96 20 -158
17 -147 -9 -249 -61 -498 -255 -139 -108 -207 -148 -275 -164 -80 -19 -95 -10
-156 89 -67 109 -211 372 -205 377 2 2 30 -9 63 -25 182 -90 376 -78 560 34
48 29 94 63 275 201 129 98 192 129 265 130 33 0 76 -7 95 -14 49 -20 176
-105 300 -201 137 -106 222 -157 315 -186 143 -45 286 -25 431 60 32 19 130
88 217 154 197 148 269 186 352 186 80 1 140 -32 326 -179 227 -180 352 -240
517 -252 l82 -6 0 144 0 144 -62 3 c-88 3 -192 56 -348 180 -256 201 -359 252
-513 252 -164 0 -267 -50 -560 -271 -160 -121 -223 -154 -292 -153 -75 0 -140
36 -335 183 -246 186 -367 241 -526 241 -85 0 -183 -27 -269 -75 -59 -33 -91
-55 -295 -211 -137 -104 -206 -138 -285 -138 -83 -1 -153 35 -345 179 -85 64
-160 120 -167 123 -16 9 -85 251 -123 428 -25 119 -53 296 -74 464 -3 25 -9
158 -12 295 -7 271 3 465 37 700 257 1780 1643 3200 3414 3495 278 46 453 59
745 54 140 -2 266 -5 280 -8 14 -2 59 -7 100 -11 643 -60 1325 -311 1890 -696
598 -407 1070 -951 1390 -1604 233 -475 362 -935 409 -1465 20 -217 12 -687
-14 -860 -22 -146 -26 -183 -18 -190 8 -8 269 -50 309 -50 17 0 22 10 32 73
43 255 61 660 43 942 -99 1532 -943 2882 -2278 3641 -473 269 -1104 479 -1618
539 -27 3 -86 10 -130 16 -134 17 -701 20 -858 4z"/>
<path d="M3950 8914 c0 -5 7 -67 15 -139 15 -130 33 -555 23 -555 -3 0 -94 36
-202 80 -108 44 -198 80 -200 80 -1 0 -8 -19 -15 -42 -22 -74 -101 -225 -177
-339 -94 -141 -185 -250 -287 -344 l-82 -75 26 -26 26 -26 109 46 c109 46 288
144 396 217 l56 39 64 -69 c60 -65 100 -130 132 -213 13 -33 21 -39 72 -54
l57 -16 -24 -19 c-236 -182 -520 -343 -792 -449 -73 -29 -136 -55 -140 -60
-10 -9 24 -70 40 -70 25 0 283 70 408 110 383 124 730 303 990 510 44 35 126
109 182 164 l101 101 -23 -61 c-70 -186 -210 -381 -404 -566 -343 -327 -732
-594 -1171 -806 -96 -47 -176 -86 -178 -87 -1 -1 3 -16 9 -34 8 -22 16 -30 28
-27 263 80 550 192 801 315 58 28 106 51 108 51 1 0 2 -319 2 -710 l0 -710
-27 0 c-62 0 -598 -23 -602 -27 -2 -1 49 -111 115 -244 114 -230 120 -240 144
-234 14 3 42 24 62 46 l37 41 428 108 c471 119 672 173 961 257 l192 56 0 33
0 34 -58 0 c-62 0 -687 -35 -789 -45 l-63 -6 0 241 0 240 325 0 324 0 42 -62
c100 -149 245 -300 392 -411 296 -223 733 -389 1302 -495 l100 -19 13 46 c44
156 115 254 220 302 44 20 52 28 52 50 l0 27 -117 7 c-186 10 -425 33 -583 56
-134 19 -415 72 -450 85 -8 3 62 32 155 63 189 64 318 114 444 172 54 25 99
39 125 39 62 0 86 9 86 32 0 28 -105 129 -269 260 l-134 108 -25 -38 c-110
-163 -320 -370 -529 -521 l-71 -51 -74 26 c-172 61 -385 182 -498 283 l-45 40
298 1 297 0 0 -45 0 -45 53 0 c102 0 238 45 333 111 l46 31 -7 112 c-4 61 -9
120 -11 130 -6 31 -6 435 0 445 3 4 19 11 36 15 17 3 45 19 61 36 l30 30 -18
31 c-35 61 -278 242 -341 255 -26 5 -37 0 -74 -35 -25 -22 -64 -65 -89 -96
l-44 -55 -655 0 -655 0 -127 51 -127 52 152 91 c84 50 163 99 177 109 13 9 27
17 30 17 3 0 26 -41 50 -91 33 -66 49 -89 60 -85 155 52 128 49 572 55 403 6
417 7 445 27 38 29 41 66 8 110 -30 40 -191 166 -248 195 -66 34 -83 26 -172
-88 l-80 -103 -180 2 c-99 1 -227 7 -285 13 l-105 10 117 87 c146 109 334 274
427 375 l71 78 23 -30 c258 -347 582 -607 1047 -840 189 -95 594 -255 608
-240 3 2 14 30 24 62 40 118 132 222 234 264 53 22 55 24 52 58 l-3 35 -180
37 c-509 104 -970 257 -1304 433 -58 31 -108 59 -113 64 -4 4 43 27 104 51
139 53 317 144 434 221 61 40 94 55 104 50 63 -34 346 -303 447 -425 l41 -50
64 0 c77 0 133 26 160 76 26 46 20 152 -12 229 -54 127 -179 262 -342 369
l-86 57 59 70 c85 99 172 228 233 346 53 101 55 103 95 110 68 12 111 37 111
65 0 47 -252 282 -358 334 -54 27 -57 25 -193 -122 l-104 -111 -340 6 c-187 4
-353 9 -370 11 -16 2 -79 6 -140 9 -60 4 -125 9 -142 12 -18 4 -33 3 -33 -1 0
-4 27 -58 60 -119 l59 -112 143 24 c121 20 192 24 456 29 l313 5 -22 -58 c-23
-64 -131 -288 -153 -317 -13 -16 -23 -15 -177 32 -164 49 -327 87 -493 116
-117 20 -119 20 -138 -13 l-17 -28 97 -48 c191 -95 542 -306 542 -325 0 -4
-53 -59 -117 -123 -108 -105 -246 -216 -349 -281 l-41 -25 -40 26 c-59 41
-153 116 -153 124 0 3 24 14 53 23 124 41 102 74 -98 145 -49 17 -162 51 -249
76 -88 24 -160 45 -162 47 -2 1 31 49 73 105 60 79 82 102 100 102 40 0 106
20 133 40 24 18 24 19 8 52 -22 47 -155 196 -238 267 l-71 61 139 0 c179 0
222 15 222 78 0 31 -53 96 -136 167 -98 83 -161 125 -189 125 -26 0 -86 -62
-160 -162 l-49 -68 -113 0 c-83 0 -113 3 -114 13 -5 44 3 64 41 95 22 19 40
38 40 42 0 35 -131 93 -345 155 -71 21 -136 40 -142 42 -7 3 -13 1 -13 -3z
m714 -526 c-20 -24 -70 -78 -110 -120 l-72 -78 -56 0 -56 0 0 120 0 120 166 0
166 0 -38 -42z m-225 -377 c-44 -76 -137 -197 -209 -274 l-75 -80 -7 44 c-19
112 -140 199 -299 216 -33 3 -62 9 -64 13 -2 3 24 31 58 61 l61 54 256 5 c140
3 265 3 278 1 l23 -3 -22 -37z m1241 -1726 l0 -125 -690 0 -690 0 0 125 0 125
690 0 690 0 0 -125z m0 -390 l0 -125 -690 0 -690 0 0 123 c0 68 2 126 4 128 2
2 313 3 690 1 l686 -2 0 -125z"/>
<path d="M9300 4373 c-28 -32 -84 -107 -123 -166 l-72 -108 -1005 4 c-553 3
-1021 7 -1040 10 -55 10 -253 27 -257 23 -3 -3 101 -222 111 -233 1 -2 38 4
82 13 166 32 296 45 507 51 l217 6 0 -337 0 -336 -138 0 -139 0 -244 99 c-134
54 -245 98 -247 96 -1 -1 4 -56 12 -122 33 -265 40 -476 40 -1253 1 -752 -5
-1093 -24 -1425 -27 -483 -29 -459 34 -489 42 -20 112 -20 194 -1 75 18 109
35 157 77 l36 31 -7 153 -7 154 878 0 878 0 -8 -137 c-12 -211 -12 -219 9
-242 26 -29 138 -29 232 0 79 24 179 81 195 111 7 12 9 49 5 97 -22 296 -36
1005 -36 1864 0 638 3 808 13 811 61 18 115 43 143 68 32 28 33 31 19 57 -35
69 -322 291 -375 291 -19 0 -101 -83 -162 -162 l-59 -78 -199 0 -200 0 0 335
0 335 494 0 c290 0 505 4 520 10 14 5 33 21 42 35 17 26 17 29 -1 62 -23 42
-218 231 -311 301 -38 29 -79 52 -91 52 -14 0 -40 -21 -73 -57z m-920 -738 l0
-335 -155 0 -155 0 0 335 0 335 155 0 155 0 0 -335z m-663 -712 c-12 -488 -70
-742 -223 -973 -24 -36 -56 -81 -73 -100 l-30 -35 -1 678 0 677 166 0 167 0
-6 -247z m665 -255 l3 -503 25 -50 c52 -103 115 -118 478 -113 l252 3 0 -232
0 -233 -875 0 -875 0 0 90 c0 65 3 90 13 90 29 0 206 129 298 218 163 156 243
294 305 527 45 172 56 252 61 483 l6 222 153 0 153 0 3 -502z m758 92 l0 -410
-190 0 c-177 0 -191 1 -210 20 -19 19 -20 33 -20 410 l0 390 210 0 210 0 0
-410z m0 -1370 c0 -5 0 -145 0 -310 0 -165 0 -304 0 -310 0 -7 -298 -10 -875
-10 l-875 0 0 320 0 320 875 0 c577 0 875 -3 875 -10z"/>
<path d="M5964 4389 c-16 -18 -12 -23 72 -112 49 -52 120 -137 157 -188 71
-100 167 -276 188 -346 11 -39 17 -45 66 -63 59 -22 126 -26 170 -9 37 14 90
65 113 109 76 149 -33 367 -243 484 -85 48 -251 102 -372 121 -55 9 -108 17
-117 19 -9 2 -24 -5 -34 -15z"/>
<path d="M6871 3672 c-5 -9 -57 -136 -116 -282 -253 -627 -594 -1450 -705
-1700 -61 -140 -61 -140 -191 -140 -59 0 -114 -3 -123 -6 -11 -4 -16 -19 -16
-50 0 -37 3 -44 23 -48 99 -21 132 -31 172 -57 57 -36 80 -84 100 -206 17
-112 13 -440 -9 -608 -20 -151 -20 -183 0 -242 36 -106 103 -150 214 -140 162
14 265 145 278 352 9 150 -12 273 -103 590 -21 76 -39 163 -42 210 -15 222 99
664 580 2248 11 37 18 70 15 72 -3 3 -19 10 -37 15 -25 7 -33 5 -40 -8z"/>
<path d="M5633 3358 l-22 -21 84 -89 c137 -146 257 -337 290 -463 18 -70 19
-71 65 -95 88 -45 166 -38 233 20 59 52 81 108 75 192 -14 213 -234 385 -579
452 -46 9 -93 19 -105 21 -12 3 -29 -4 -41 -17z"/>
</g>
</svg>
