<?xml version="1.0" encoding="utf-8"?>
<!-- Generator: Adobe Illustrator 16.0.0, SVG Export Plug-In . SVG Version: 6.00 Build 0)  -->
<!DOCTYPE svg PUBLIC "-//W3C//DTD SVG 1.1//EN" "http://www.w3.org/Graphics/SVG/1.1/DTD/svg11.dtd">
<svg version="1.1" id="圖層_1" xmlns="http://www.w3.org/2000/svg" xmlns:xlink="http://www.w3.org/1999/xlink" x="0px" y="0px"
	 width="980.293px" height="948.167px" viewBox="0 0 980.293 948.167" enable-background="new 0 0 980.293 948.167"
	 xml:space="preserve">
<path display="none" d="M351.891,169.61l-9.632,11.007c7.797,3.67,39.9,21.556,39.9,38.985c0,8.254-8.713,10.091-10.548,10.091
	c-3.669,0-7.339-3.669-9.632-10.551c-1.834-4.584-10.088-23.39-24.765-33.479c-11.926,14.218-39.901,32.563-43.57,32.563
	c-1.836,0-2.752-1.834-2.752-2.752c0-0.916,0.458-1.834,1.375-2.293c11.467-8.713,22.933-20.179,33.939-34.854
	c20.181-27.061,22.016-36.234,24.307-48.158l20.182,8.714c3.21,1.375,5.501,3.669,5.501,5.504c0,2.293-2.292,5.044-6.419,5.044
	c-5.044,1.834-5.505,2.293-8.257,6.422h46.782V75.59l23.39,4.586c7.338,0.916,10.548,3.21,10.548,6.878
	c0,3.669-2.292,6.422-5.96,7.338c-5.503,1.835-5.503,3.669-5.503,14.676h33.479l24.768-24.766l23.849,22.015
	c2.293,1.835,3.21,4.585,3.21,7.338c0,5.045-4.585,9.172-9.63,9.172h-75.675v33.023h28.435l11.007-9.173l18.345,16.052
	c1.376,0.918,2.293,2.75,2.293,4.587c0,1.375,0,8.714-8.712,8.714c-3.67,0-7.338,1.375-9.632,5.504
	c-7.798,11.007-62.375,80.26-164.191,103.193c-4.128-3.212-4.586-3.669-4.586-5.505c0-0.917,0.458-1.833,1.833-2.292
	c55.953-19.263,116.495-54.577,149.058-107.322H351.891z M583.044,300.781l12.382-12.383l21.098,13.758
	c1.834,0.917,2.293,2.751,2.293,4.587c0,5.502-6.42,7.339-6.88,7.339c-3.669,0.916-5.962,3.21-5.962,5.501v93.564
	c0.459,2.751-1.835,5.502-4.586,6.879c-14.218,3.669-17.886,4.585-17.886-6.879v-17.889H420.225v62.834l90.352-20.18
	c3.669-0.919,6.423,0.918,6.423,4.587c0,3.21-1.836,5.961-5.504,7.337c-23.391,10.09-49.074,18.347-77.051,24.766l-74.757,16.971
	c-1.836,0.458-2.752,1.835-2.752,4.586l0.459,4.127c0,4.588-4.587,5.505-7.338,5.505c-4.128,0-7.797-3.211-10.091-9.632
	l-9.173-25.684c21.099-1.376,43.572-4.586,66.044-8.255V301.238l-19.72,9.631c-49.992,21.099-81.18,28.896-82.555,28.896
	c-2.294,0-3.668-1.378-3.668-3.212c0-1.376,0.916-2.751,2.292-3.67c99.065-34.396,164.65-82.554,201.342-143.551l23.389,9.17
	c4.129,1.378,6.423,4.128,6.423,6.881c0,4.586-4.587,6.421-9.174,6.421c43.57,36.233,103.193,61.917,193.546,73.841
	c0.457,0,3.667,0,3.667,3.21c0,1.834-2.75,3.669-7.793,6.421c-5.965,2.752-9.175,7.339-9.175,12.843
	c0,5.044-1.835,7.338-4.128,7.338c-21.099-4.588-44.029-12.383-68.338-22.015c-55.494-21.558-96.771-55.954-116.492-76.594
	c-14.676,16.054-32.564,32.564-52.744,48.617l-46.322,30.271l5.961,5.045H583.044z M420.225,314.539v25.684h163.278v-25.684H420.225
	z M420.225,353.983V381.5h163.278v-27.517H420.225z M507.826,266.841l22.473-21.097l20.182,18.346
	c2.291,1.834,3.21,4.585,3.21,6.879c0,3.669-3.21,9.632-9.632,9.632H459.21l-3.67-13.76H507.826z M621.109,424.154
	c11.924-6.881,20.639-13.301,28.436-22.014l17.889,14.675c2.289,1.833,3.667,3.669,3.667,5.961c0,2.753-2.751,5.047-5.045,5.047
	c-0.458,0-7.798-1.837-9.171-1.837l-29.812,12.844l-19.724,5.96c33.48,11.926,71.549,31.647,71.549,49.533
	c0,6.422-3.668,11.927-10.091,11.927c-2.752,0-5.504-0.92-7.338-2.755c-54.12-41.735-114.659-67.418-172.907-78.425
	c-2.751-0.46-3.668-2.753-3.668-5.504c0-2.294,1.375-3.668,3.668-3.668h0.918c36.232,5.503,70.631,13.3,100.901,23.39
	L621.109,424.154z M650.922,103.566l9.173-10.548l19.719,15.594c1.837,0.916,2.755,2.751,2.755,5.044
	c0,5.503-3.212,8.254-8.258,8.254c-3.667,0-7.337,2.294-9.171,6.879c-5.045,8.256-14.218,18.804-27.52,32.105l-16.511,15.136
	c36.233,19.262,68.338,44.029,68.338,60.999c0,12.841-9.174,13.759-10.549,13.759c-1.836,0-2.293-0.459-8.716-4.588
	c-20.638-23.847-46.319-46.779-64.665-59.162l-11.926,8.254c-16.512,8.716-33.48,16.512-50.908,21.099
	c-1.378,0-4.587-1.834-4.587-4.587c0-1.376,0.458-2.293,1.377-2.752c18.802-8.256,37.148-17.888,53.198-31.187
	c-17.426-11.007-36.689-21.098-56.868-29.812c-1.836-0.918-3.211-2.294-3.211-4.127c0-0.917,0.917-5.045,4.587-5.045
	c1.835,0,29.353,9.631,67.878,28.436l17.427-16.513c10.093-11.464,17.43-22.471,22.933-33.022H543.599l-2.75-14.217H650.922z"/>
<path display="none" d="M620.933,804.374c-2.751,9.632-4.126,18.344-4.126,23.852c0.915,13.297,5.044,30.729,11.465,50.907
	c4.585,13.298,6.879,25.226,6.879,35.313c0,12.384-2.751,26.143-14.675,26.143c-17.429,0-17.429-34.395-17.429-42.192
	c0-4.588,0.915-25.684,0.915-30.271c0-16.968-1.375-30.271-4.585-40.359c-1.836-2.292-13.301-4.128-33.481-5.048
	c-2.751,0-4.126-1.832-4.126-4.124c0-2.296,1.832-4.128,4.585-4.128c27.978-2.295,35.774-7.796,40.818-23.852l73.841-199.505
	c0.918-1.835,1.836-2.755,3.668-2.755c4.13,0,5.507,2.755,4.588,5.965L620.933,804.374z M603.047,700.723
	c-4.129-12.843-19.263-38.986-36.233-47.697c-0.459-0.46-0.918-1.836-0.918-2.756c0-1.832,0.918-4.124,2.753-4.124
	c5.962,0,57.789,29.354,57.789,55.491c0,7.798-5.962,11.927-11.468,11.927C609.468,713.564,605.799,709.435,603.047,700.723z
	 M636.528,588.813c-8.716-22.014-24.769-41.277-40.361-48.615c-1.375-0.456-1.835-1.832-1.835-3.21c0-1.373,0.917-3.669,3.209-3.669
	c6.88,0,62.835,29.353,62.835,55.955c0,11.007-11.008,11.007-12.386,11.007C643.405,600.281,639.277,596.611,636.528,588.813z
	 M697.982,609.456l21.098,17.427h55.955v-65.126h-94.021l-3.67-13.762h247.668l28.892-24.306l29.354,22.015
	c2.292,1.377,3.67,4.128,3.67,7.338c0,5.961-4.588,8.715-10.549,8.715H864.011v65.126h65.126l11.007-14.677l21.098,13.759
	c1.376,0.918,1.835,2.292,1.835,4.588c0,4.128-2.753,7.796-6.422,8.71c-3.669,1.378-5.044,3.214-5.044,4.588v290.319
	c0,2.292-1.835,4.586-4.586,5.961c-16.053,3.667-17.888,4.127-17.888-5.503v-30.27H720.458v33.48c0,5.505-4.13,6.878-18.346,10.089
	c-2.752,0-4.13-3.67-4.13-10.089V609.456z M929.137,640.64h-65.126v102.276l1.376,3.668l3.21,1.838h23.394
	c4.125-0.918,6.877-5.966,6.877-14.676v-20.183c0.458-1.832,1.836-2.751,3.669-2.751c1.835,0,3.21,1.376,3.21,2.751v18.805
	c-0.459,6.878,0.918,13.298,5.504,16.054c2.294,0.914,3.669,4.128,3.669,9.17c0,1.838-1.375,13.304-16.511,13.304h-44.029
	c-3.67,0-13.302-5.966-13.302-19.264V640.64h-43.57c0,36.233-6.878,65.127-22.472,89.896
	c-14.678,22.014-33.023,40.359-54.577,54.116v28.435h208.679V640.64z M720.458,768.6c49.992-45.403,54.577-96.771,54.577-127.96
	h-54.577V768.6z M720.458,827.305v62.833h208.679v-62.833H720.458z M797.507,626.882h43.57v-65.126h-43.57V626.882z"/>
<g>
	<g>
		<path d="M521.644,889.476c-59.471,0-117.167-11.649-171.486-34.625c-52.462-22.189-99.575-53.953-140.032-94.41
			c-40.456-40.457-72.22-87.57-94.41-140.032c-22.975-54.319-34.624-112.016-34.624-171.486c0-59.47,11.649-117.166,34.624-171.485
			c22.189-52.461,53.954-99.575,94.41-140.032c40.457-40.457,87.57-72.221,140.032-94.411
			C404.477,20.021,462.173,8.371,521.644,8.371c59.471,0,117.167,11.649,171.487,34.625c52.461,22.189,99.575,53.954,140.031,94.411
			c40.457,40.457,72.221,87.57,94.41,140.032c22.975,54.319,34.624,112.015,34.624,171.485c0,22.036-1.642,44.165-4.879,65.773
			l-17.801-2.668c3.105-20.728,4.68-41.959,4.68-63.105c0-232.996-189.557-422.552-422.553-422.552
			c-232.996,0-422.551,189.556-422.551,422.552c0,232.997,189.556,422.553,422.551,422.553c19.118,0,38.337-1.286,57.122-3.823
			l2.408,17.838C561.594,888.135,541.564,889.476,521.644,889.476z"/>
		<path d="M521.644,897.476c-60.547,0-119.292-11.862-174.603-35.257c-53.416-22.593-101.384-54.933-142.572-96.121
			c-41.189-41.19-73.529-89.158-96.121-142.573c-23.394-55.312-35.256-114.056-35.256-174.602
			c0-60.545,11.862-119.29,35.256-174.601c22.593-53.416,54.933-101.384,96.121-142.572c41.189-41.189,89.157-73.529,142.572-96.122
			C402.352,12.233,461.097,0.371,521.644,0.371c60.547,0,119.292,11.862,174.604,35.256
			c53.416,22.593,101.384,54.934,142.572,96.122c41.188,41.188,73.527,89.156,96.121,142.572
			c23.394,55.311,35.256,114.055,35.256,174.601c0,22.43-1.671,44.958-4.967,66.958l-1.186,7.912l-33.624-5.04l1.185-7.911
			c3.047-20.334,4.592-41.167,4.592-61.919c0-228.584-185.968-414.552-414.553-414.552c-228.584,0-414.551,185.967-414.551,414.552
			c0,228.585,185.967,414.553,414.551,414.553c18.763,0,37.621-1.262,56.051-3.751l7.929-1.071l4.549,33.694l-7.927,1.07
			C562.311,896.111,541.922,897.476,521.644,897.476z M521.644,16.371c-58.394,0-115.042,11.437-168.37,33.993
			c-51.507,21.786-97.766,52.974-137.491,92.699c-39.724,39.725-70.912,85.983-92.698,137.491
			c-22.556,53.329-33.992,109.976-33.992,168.369c0,58.393,11.437,115.041,33.992,168.37
			c21.786,51.508,52.974,97.767,92.698,137.491c39.724,39.725,85.982,70.913,137.491,92.699
			c53.328,22.557,109.976,33.993,168.37,33.993c16.88,0,33.838-0.98,50.521-2.917l-0.268-1.982
			c-16.595,1.926-33.463,2.899-50.254,2.899c-237.407,0-430.551-193.146-430.551-430.553c0-237.407,193.145-430.552,430.551-430.552
			c237.407,0,430.553,193.145,430.553,430.552c0,18.857-1.229,37.781-3.657,56.368l1.978,0.297
			c2.443-18.688,3.68-37.712,3.68-56.665c0-58.393-11.437-115.04-33.992-168.369c-21.787-51.509-52.975-97.768-92.699-137.491
			c-39.724-39.724-85.982-70.913-137.49-92.699C636.686,27.808,580.037,16.371,521.644,16.371z"/>
	</g>
</g>
<g>
	<g>
		<path d="M7.546,633.417c-0.133,0-0.265,0-0.399,0l0.16-18c0.075,0,0.15,0,0.225,0c12.799,0,25.087-10.003,38.093-20.308
			c14.429-11.432,29.35-23.692,47.517-23.692c0.131,0,0.265,0,0.396,0c18.225,0,33.575,11.896,48.424,23.354
			c12.988,10.021,25.256,19.646,37.345,19.646c0.077,0,0.156,0,0.233,0c13.092,0,25.381-9.758,38.389-20.029
			c14.268-11.268,29.022-22.971,47.002-22.971c0.125,0,0.247,0,0.372,0c19.407,0,34.836,12.248,49.756,23.871
			c12.509,9.746,24.323,19.129,36.254,19.129c0.06,0,0.12,0,0.18,0c10.357,0,22.224-9.218,34.784-18.917
			c15.299-11.814,31.118-24.083,49.5-24.083c0.126,0,0.251,0,0.378,0c18.148,0,32.393,11.75,46.169,22.801
			c13.267,10.643,25.799,20.772,40.965,20.896l-0.146,18.038c-21.411-0.175-37.706-13.381-52.082-24.912
			c-11.909-9.554-23.158-18.822-35.071-18.822c-0.065,0-0.133,0-0.199,0c-12.257,0-25.602,10.46-38.512,20.431
			c-14.4,11.12-29.288,22.693-45.787,22.693c-0.122,0-0.243,0.038-0.365,0.036c-18.011-0.186-32.814-11.854-47.13-23.007
			c-13.135-10.233-25.542-20.153-38.854-20.153c-0.066,0-0.133,0-0.199,0c-11.743,0-23.459,9.406-35.859,19.197
			c-14.85,11.727-30.204,23.926-49.528,23.928c-0.137,0-0.271,0.037-0.408,0.037c-18.136-0.16-33.41-12.08-48.181-23.477
			c-13.03-10.052-25.342-19.686-37.439-19.686c-0.073,0-0.144,0-0.217,0c-11.996,0-23.902,9.813-36.508,19.801
			C41.952,620.984,26.596,633.417,7.546,633.417z"/>
		<path d="M7.546,638.417H2.103l0.25-28h5.18c10.737,0,22.042-8.963,34.011-18.452l2.221-1.761
			c14.745-11.694,29.991-23.787,49.377-23.787h0.396c19.861,0,35.849,12.336,51.31,24.265l0.813,0.627
			c12.066,9.313,23.463,18.108,33.646,18.108h0.233c11.288,0,22.848-9.129,35.087-18.793l0.357-0.282
			c14.894-11.762,30.295-23.925,49.946-23.925h0.372c20.84,0,36.768,12.411,52.171,24.414l1.35,1.052
			c11.569,9.018,22.497,17.534,32.489,17.534h0.18c8.583,0,19.704-8.589,31.478-17.682l0.42-0.324
			c15.912-12.288,32.366-24.994,52.385-24.994h0.378c19.521,0,34.875,12.323,48.42,23.196l1.129,0.906
			c12.492,10.021,24.29,19.485,37.625,19.594l4.999,0.041l-0.228,28.038l-5-0.041c-22.978-0.188-39.9-13.763-54.83-25.74
			l-1.211-0.972c-10.906-8.754-21.207-17.022-31.07-17.022h-0.199c-10.358,0-22.809,9.618-34.849,18.919l-0.864,0.667
			c-14.903,11.509-30.311,23.408-48.292,23.537c-0.174,0.02-0.396,0.037-0.65,0.037c-19.586-0.201-34.945-12.167-49.797-23.739
			l-1.335-1.04c-12.125-9.453-23.578-18.381-34.861-18.381h-0.199c-9.816,0-20.668,8.571-32.157,17.645l-0.818,0.646
			c-15.396,12.159-31.316,24.73-52.16,24.833c-0.223,0.024-0.441,0.038-0.66,0.038c-19.687-0.174-35.509-12.383-50.81-24.189
			l-0.977-0.754c-12.143-9.369-23.612-18.219-33.833-18.219h-0.217c-9.808,0-20.588,8.553-32.001,17.608l-2.162,1.714
			C43.841,625.871,28.013,638.417,7.546,638.417z M12.267,620.051l-0.072,8.081c15.002-1.829,28.068-12.186,40.742-22.23
			l2.158-1.711c12.817-10.169,24.923-19.774,38.216-19.774h0.217c13.631,0,26.412,9.861,39.942,20.302l0.977,0.754
			c13.918,10.739,28.308,21.843,44.483,22.104c0.211-0.022,0.418-0.034,0.625-0.034c17.495-0.002,32.095-11.531,46.215-22.682
			l0.817-0.646c12.891-10.181,25.066-19.797,38.355-19.797h0.199c14.721,0,27.49,9.955,41.01,20.494l1.333,1.038
			c13.461,10.488,27.377,21.331,43.403,21.624c0.166-0.018,0.372-0.032,0.604-0.032c14.695,0,28.817-10.906,42.474-21.453
			l0.863-0.666c13.368-10.326,27.191-21.005,40.962-21.005h0.199c13.381,0,25.014,9.338,37.33,19.225l1.208,0.97
			c12.475,10.007,26.467,21.232,43.657,23.229l0.065-8.078c-14.473-1.923-26.326-11.434-38.804-21.443l-1.131-0.907
			c-12.859-10.322-26.156-20.995-42.161-20.995h-0.378c-16.608,0-31.689,11.646-46.273,22.908l-0.42,0.324
			c-13.163,10.166-25.596,19.768-37.59,19.768h-0.18c-13.429,0-25.673-9.543-38.637-19.646l-1.349-1.052
			c-14.071-10.964-28.621-22.302-46.025-22.302h-0.372c-16.178,0-30.194,11.068-43.749,21.772l-0.357,0.282
			c-13.641,10.771-26.524,20.945-41.285,20.945h-0.233c-13.594,0-26.302-9.808-39.756-20.192l-0.812-0.625
			c-14.134-10.906-28.75-22.183-45.201-22.183h-0.396c-15.902,0-29.761,10.992-43.164,21.622l-2.222,1.762
			C35.885,609.211,24.599,618.16,12.267,620.051z"/>
	</g>
</g>
<g>
	<g>
		<path d="M7.546,700.417c-0.133,0-0.265,0-0.399,0l0.16-18c0.075,0,0.15,0,0.225,0c12.799,0,25.087-9.803,38.094-20.107
			c14.429-11.433,29.349-23.287,47.515-23.459c18.422-0.152,33.863,11.742,48.819,23.28c12.989,10.021,25.257,19.479,37.346,19.584
			c13.184,0.124,25.541-9.846,38.625-20.178c14.269-11.269,29.021-23.12,47.001-23.12c0.124,0,0.247,0,0.371,0
			c19.407,1,34.835,12.248,49.756,23.873c12.508,9.744,24.323,19.127,36.254,19.127c0.06,0,0.122,0,0.182,0
			c10.359,0,22.225-9.217,34.784-18.916c15.298-11.814,31.117-24.084,49.499-24.084c0.126,0,0.25,0,0.376,0
			c18.149,1,32.393,11.795,46.169,22.846c13.267,10.643,25.798,20.796,40.965,20.919l-0.146,18.05
			c-21.412-0.174-37.706-13.42-52.083-24.953c-11.909-9.554-23.157-17.861-35.07-18.861c-0.065,0-0.132,0-0.198,0
			c-12.256,0-25.602,10.505-38.511,20.475c-14.507,11.203-29.527,22.925-46.155,22.715c-18.01-0.186-32.814-11.869-47.13-23.023
			c-13.135-10.232-25.541-19.166-38.854-20.166c-0.065,0-0.133,0-0.199,0c-11.743,0-23.458,9.45-35.857,19.242
			c-14.956,11.811-30.419,24.078-49.939,23.947c-18.135-0.157-33.41-12.092-48.183-23.489c-13.028-10.052-25.341-19.7-37.437-19.7
			c-0.073,0-0.144,0-0.216,0c-11.994,1-23.901,9.814-36.507,19.801C41.952,687.985,26.597,700.417,7.546,700.417z"/>
		<path d="M7.546,705.417H2.103l0.25-28h5.18c10.975,0,22.516-9.145,34.735-18.825l0.351-0.495
			c15.062-11.935,30.636-23.68,50.475-24.68h0.397c19.996,0,36.023,12.432,51.523,24.39c12.299,9.49,23.917,18.61,34.335,18.61h0.2
			c11.1,0,22.476-8.836,34.519-18.35l1.353-0.994c14.77-11.666,30.042-23.693,49.512-23.693l0.628,0.025
			c20.356,1.049,36.483,12.396,52.571,24.931l0.696,0.547c11.567,9.015,22.494,17.534,32.485,17.534h0.182
			c8.585,0,19.706-8.589,31.48-17.682l0.418-0.323c15.912-12.288,32.365-24.995,52.384-24.995l0.651,0.008
			c19.046,1.049,33.47,11.462,49.023,23.938l0.328,0.264c12.466,10.001,24.242,19.448,37.549,19.556l4.999,0.041l-0.228,28.049
			l-5-0.04c-22.932-0.187-39.829-13.744-54.737-25.705l-0.434-0.348c-10.981-8.81-21.705-16.795-32.16-17.762
			c-10.299,0.013-22.681,9.579-34.655,18.831l-1.178,0.909c-14.928,11.529-30.365,23.452-48.371,23.452l-0.503-0.003
			c-19.498-0.201-34.845-12.161-49.688-23.727l-0.453-0.353c-12.689-9.885-24.161-18.148-35.976-19.11h-0.004
			c-9.764,0-20.561,8.529-31.991,17.561l-0.925,0.635c-15.501,12.242-31.529,24.805-52.571,24.805h-0.343
			c-19.634,0-35.445-12.276-50.735-24.074l-1.072-0.779c-12.123-9.355-23.574-18.169-33.777-18.17
			c-10.446,0.961-21.411,9.06-33.62,18.731l-0.754,0.604C43.846,692.863,28.016,705.417,7.546,705.417z M12.267,687.056
			l-0.072,8.076c15.005-1.83,28.072-12.188,40.748-22.235l0.756-0.599c13.583-10.76,25.907-19.757,39.196-20.864l0.632-0.018
			c13.614,0,26.376,9.849,39.889,20.276l1.071,0.732c13.982,10.789,28.44,21.991,44.703,21.991h0.266
			c17.569,0,32.212-11.469,46.374-22.652l0.923-0.683c12.833-10.138,24.953-19.688,38.19-19.688l0.573,0.025
			c14.665,1.102,27.494,10.263,41.552,21.214l0.454,0.356c13.532,10.545,27.525,21.449,43.656,21.615l0.389,0.004
			c14.594,0,28.658-10.861,42.259-21.365l1.176-0.909c13.31-10.283,27.073-20.917,40.79-20.917l0.616,0.018
			c13.327,1.119,25.476,10.072,37.781,19.943l0.434,0.349c12.451,9.989,26.419,21.196,43.563,23.194l0.065-8.091
			c-14.444-1.922-26.275-11.414-38.728-21.404l-0.328-0.263c-14.144-11.347-27.16-20.815-43.182-21.746h-0.234
			c-16.607,0-31.688,11.646-46.272,22.909l-0.418,0.323c-13.163,10.166-25.596,19.768-37.592,19.768h-0.182
			c-13.428,0-25.67-9.54-38.632-19.641l-0.695-0.542c-15.307-11.927-29.398-21.876-46.815-22.817h-0.238
			c-15.996,0-29.883,10.97-43.313,21.579l-1.353,0.918c-13.445,10.621-26.144,20.503-40.717,20.503h-0.291
			c-13.775,0-26.686-10.147-40.353-20.692c-14.173-10.935-28.828-22.308-45.415-22.308h-0.309c-16.405,1-30.613,11.63-44.354,22.518
			l-0.352,0.387C36.359,675.922,24.84,685.158,12.267,687.056z"/>
	</g>
</g>
<g>
	<g>
		<path d="M7.547,769.417c-0.133,0-0.267,0-0.4,0l0.161-18c0.075,0,0.15,0,0.225,0c12.799,0,25.086-9.902,38.092-20.207
			c14.43-11.432,29.35-23.337,47.517-23.508c0.132-0.001,0.267-0.044,0.399-0.044c18.223,0,33.572,11.778,48.421,23.233
			c12.988,10.021,25.256,19.525,37.344,19.525c0.078,0,0.158,0,0.236,0c13.093,0,25.381-9.659,38.388-19.93
			c14.368-11.345,29.186-23.078,47.374-22.891c19.406,0.17,34.835,12.157,49.756,23.782c12.508,9.744,24.323,19.038,36.253,19.038
			c0.06,0,0.122,0,0.182,0c10.359,0,22.225-9.219,34.783-18.916c15.298-11.814,31.116-24.084,49.497-24.084c0.127,0,0.253,0,0.381,0
			c18.148,0,32.393,11.693,46.169,22.744c13.267,10.643,25.798,20.744,40.964,20.867l-0.146,18.025
			c-21.411-0.174-37.705-13.332-52.081-24.864c-11.909-9.553-23.158-18.772-35.071-18.772c-0.066,0-0.134,0-0.2,0
			c-12.257,0-25.602,10.404-38.511,20.373c-14.398,11.119-29.286,22.664-45.783,22.665c-0.124,0-0.246,0.024-0.37,0.022
			c-18.009-0.184-32.813-11.805-47.129-22.958c-13.135-10.232-25.541-20.103-38.854-20.103c-0.066,0-0.134,0-0.201,0
			c-11.745,0-23.458,9.35-35.858,19.141c-14.849,11.727-30.201,23.897-49.524,23.898c-0.138,0-0.275,0.023-0.414,0.022
			c-18.135-0.159-33.409-12.029-48.18-23.425c-13.028-10.051-25.341-19.637-37.437-19.637c-0.074,0-0.145,0-0.218,0
			c-11.996,0-23.903,9.814-36.509,19.801C41.951,756.983,26.597,769.417,7.547,769.417z"/>
		<path d="M7.547,774.417H2.102l0.25-28h5.181c10.854,0,22.273-9.051,34.364-18.633l0.878-0.695
			c14.943-11.839,30.393-24.079,50.026-24.383c0.193-0.024,0.447-0.048,0.739-0.048c20.008,0,36.726,12.896,51.475,24.274
			l0.166,0.129c12.235,9.439,23.792,18.355,34.124,18.355h0.236c11.412,0,23.01-9.158,35.289-18.854l0.095-0.075
			c14.877-11.747,30.261-23.894,49.947-23.894l0.482,0.002c21.135,0.186,37.945,13.282,52.777,24.838l0.358,0.279
			c11.686,9.104,22.723,17.703,32.822,17.703h0.182c8.581,0,19.697-8.583,31.465-17.671l0.437-0.337
			c15.91-12.287,32.361-24.992,52.378-24.992h0.381c19.586,0,34.32,11.824,48.569,23.259l0.889,0.714
			c12.52,10.044,24.346,19.53,37.716,19.639l4.999,0.041l-0.228,28.024l-5-0.04c-23.036-0.188-39.99-13.788-54.948-25.787
			l-0.928-0.744c-10.962-8.797-21.316-17.105-31.235-17.105h-0.2c-10.425,0-22.947,9.671-35.057,19.022l-0.559,0.433
			c-14.965,11.557-30.439,23.506-48.506,23.583c-0.181,0.015-0.354,0.022-0.527,0.022c-19.65-0.2-35.052-12.199-49.946-23.804
			l-1.021-0.795c-12.183-9.494-23.689-18.462-35.03-18.462h-0.201c-9.884,0-20.805,8.624-32.367,17.755l-0.53,0.419
			c-15.445,12.197-31.415,24.809-52.347,24.865c-0.191,0.015-0.368,0.022-0.543,0.022c-19.754-0.173-35.623-12.415-50.968-24.254
			l-0.634-0.489c-12.21-9.42-23.744-18.318-34.023-18.318h-0.218c-9.806,0-20.584,8.55-31.994,17.602l-2.178,1.728
			C43.834,761.875,28.009,774.417,7.547,774.417z M12.267,756.054l-0.072,8.078c15-1.829,28.062-12.182,40.733-22.224l2.175-1.725
			c12.814-10.166,24.918-19.768,38.209-19.768h0.218c13.689,0,26.533,9.909,40.132,20.401l0.634,0.488
			c13.994,10.797,28.463,21.959,44.743,22.171c0.183-0.014,0.353-0.021,0.521-0.021c17.527-0.001,32.148-11.547,46.288-22.714
			l0.53-0.418c12.963-10.237,25.208-19.907,38.564-19.907h0.201c14.777,0,27.601,9.994,41.177,20.574l1.019,0.794
			c13.535,10.545,27.529,21.447,43.661,21.69c0.169-0.013,0.332-0.021,0.496-0.021c14.729-0.001,28.881-10.93,42.566-21.498
			l0.559-0.432c13.438-10.378,27.332-21.108,41.169-21.108h0.2c13.436,0,25.121,9.378,37.493,19.306l0.927,0.743
			c12.503,10.03,26.529,21.282,43.774,23.278l0.065-8.066c-14.507-1.924-26.389-11.456-38.894-21.488l-0.891-0.714
			c-12.901-10.354-26.241-21.059-42.311-21.059h-0.381c-16.605,0-31.684,11.646-46.267,22.907l-0.437,0.337
			c-13.157,10.159-25.584,19.756-37.577,19.756h-0.182c-13.534,0-25.888-9.625-38.968-19.814l-0.358-0.279
			c-14.243-11.097-28.971-22.571-46.727-22.727l-0.386-0.002c-16.215,0-30.213,11.053-43.75,21.742l-0.095,0.074
			c-13.681,10.803-26.602,21.006-41.486,21.006h-0.236c-13.741,0-26.609-9.928-40.232-20.438l-0.166-0.128
			c-14.059-10.846-28.595-22.059-45.072-22.191c-0.178,0.021-0.402,0.041-0.656,0.043c-16.335,0.153-30.498,11.374-44.194,22.225
			l-0.877,0.695C36.117,745.125,24.716,754.159,12.267,756.054z"/>
	</g>
</g>
<text transform="matrix(1 0 0 1 256.5 514.4165)" display="none" font-family="'AdobeMingStd-Light-B5pc-H'" font-size="120">餚</text>
<g>
	<path d="M629.246,110.208l11.23-11.68c0.898-0.898,2.246-2.316,4.043-4.268c1.797-1.944,3.145-3.369,4.043-4.268
		s1.944-1.797,3.145-2.695c1.193-0.898,2.246-1.348,3.145-1.348c2.99,0,10.402,5.096,22.236,15.273
		c11.827,10.185,17.744,16.923,17.744,20.215c-1.502,3.299-6.893,5.391-16.172,6.289c-8.086,18.867-19.618,36.239-34.59,52.109
		c26.055,15.273,41.174,31.6,45.371,48.965c2.99,11.981,0.147,19.618-8.535,22.91c-4.197,1.797-9.286,1.951-15.273,0.449
		c-11.083-14.972-27.557-30.996-49.414-48.066c-18.867,13.778-40.584,24.707-65.137,32.793
		c40.128,23.661,94.182,41.777,162.168,54.355l-0.449,7.188c-7.791,2.099-14.452,6.514-19.99,13.252
		c-5.545,6.738-8.914,14.003-10.107,21.787c-36.541-11.68-69.706-27.248-99.502-46.719c-29.803-19.464-52.636-41.328-68.506-65.586
		c-24.56,28.75-59.451,55.703-104.668,80.859l26.504,10.781h130.273l8.086-9.883c0.898-0.898,1.944-2.021,3.145-3.369
		c1.193-1.348,2.169-2.394,2.92-3.145c0.744-0.744,1.572-1.418,2.471-2.021c0.898-0.597,1.797-0.898,2.695-0.898
		c2.99,0,9.883,4.043,20.664,12.129s16.172,13.778,16.172,17.07c-1.797,3.896-6.142,6.289-13.027,7.188v23.359
		c0.597,18.867,1.495,33.691,2.695,44.473c-1.502,2.997-6.219,6.289-14.15,9.883c-7.938,3.594-15.049,5.391-21.338,5.391h-7.188
		v-8.535h-60.195c15.273,14.979,35.938,26.658,61.992,35.039c26.953-18.264,47.765-38.479,62.441-60.645
		c26.953,20.664,40.43,32.947,40.43,36.836c0,1.2-1.348,1.951-4.043,2.246h-8.535c-19.169,9.588-42.978,18.72-71.426,27.402
		c34.737,8.689,73.967,13.778,117.695,15.273l0.449,5.391c-15.575,4.492-25.009,16.769-28.301,36.836
		c-44.627-7.188-82.06-18.418-112.305-33.691c-30.252-15.273-54.061-36.836-71.426-64.688h-65.586v48.066
		c22.756-1.495,53.008-3.292,90.742-5.391l0.449,6.738c-34.442,10.781-87.303,24.854-158.574,42.227
		c-2.695,5.391-6.591,8.535-11.68,9.434l-23.809-48.516c17.07-0.597,38.184-1.495,63.34-2.695V311.907
		c-32.049,16.172-62.891,28.603-92.539,37.285l-2.695-6.289c50.011-21.563,94.785-50.909,134.316-88.047
		c23.654-22.159,38.633-44.768,44.922-67.832c40.725,10.486,61.094,17.821,61.094,22.012c0,1.2-1.649,2.4-4.941,3.594l-9.434,3.145
		c5.089,4.794,11.827,10.037,20.215,15.723c19.464-11.68,36.682-26.202,51.66-43.574c-20.966-14.375-42.381-26.651-64.238-36.836
		l3.145-5.84c29.045,4.197,54.952,10.486,77.715,18.867c8.381-13.477,14.67-26.953,18.867-40.43h-32.344
		c-18.867,0.302-38.485,2.4-58.848,6.289l-12.129-23.359c16.769,1.797,37.131,2.997,61.094,3.594H629.246z M450.008,148.391
		l11.23-12.129c1.193-1.193,2.92-3.067,5.166-5.615c2.246-2.541,3.966-4.338,5.166-5.391c1.193-1.046,2.394-1.572,3.594-1.572
		c2.695,0,9.209,5.32,19.541,15.947c10.332,10.634,15.498,17.597,15.498,20.889c-2.695,3.594-8.689,5.545-17.969,5.84
		c-36.239,55.703-98.533,93.438-186.875,113.203l-4.043-7.188c37.433-13.175,69.924-30.996,97.48-53.457
		c-4.794,0-9.139-1.193-13.027-3.594c-2.4-10.479-9.286-20.812-20.664-30.996c-20.369,14.08-39.082,24.11-56.152,30.098
		l-4.941-5.391c0.597-0.597,1.797-1.495,3.594-2.695c11.378-9.581,22.082-21.71,32.119-36.387
		c10.03-14.67,16.846-28.146,20.439-40.43l40.879,16.621c0-25.451-1.502-48.965-4.492-70.527
		c33.242,8.984,49.863,15.575,49.863,19.766c0,0.898-0.898,1.951-2.695,3.145l-5.84,4.043v8.086h23.359l8.086-11.23
		c6.289-8.086,10.332-12.129,12.129-12.129c2.99,0,9.279,4.12,18.867,12.354c9.581,8.24,14.375,14.003,14.375,17.295
		c-0.898,4.794-4.492,7.188-10.781,7.188h-66.035v24.258H450.008z M448.211,161.868h-55.254
		c-6.893,6.289-11.981,10.634-15.273,13.027c14.375,0.898,24.63,4.043,30.771,9.434c6.135,5.391,8.76,11.532,7.861,18.418
		C429.793,189.572,440.42,175.948,448.211,161.868z M569.949,351.887v-25.605H431.141v25.605H569.949z M431.141,364.915v26.055
		h138.809v-26.055H431.141z M551.082,292.141h-66.035c-9.883,0.302-19.471,2.4-28.75,6.289l-11.68-23.359
		c12.578,1.797,27.248,2.997,44.023,3.594h21.113l8.086-10.332c0.898-0.898,1.944-2.169,3.145-3.818
		c1.193-1.643,2.169-2.92,2.92-3.818c0.744-0.898,1.572-1.72,2.471-2.471c0.898-0.744,1.797-1.123,2.695-1.123
		c2.99,0,9.356,3.748,19.092,11.23c9.729,7.489,14.6,12.88,14.6,16.172C561.26,289.6,557.371,292.141,551.082,292.141z"/>
</g>
<g>
	<path d="M562.57,633.833l4.043-4.043c36.232,5.096,58.848,17.07,67.832,35.938c5.09,11.385,4.191,20.966-2.695,28.75
		c-7.188,8.086-16.326,8.984-27.402,2.695c-0.898-0.597-1.797-1.193-2.695-1.797c-1.797-10.479-6.514-21.338-14.15-32.568
		S571.555,641.918,562.57,633.833z M573.352,813.071h19.316c2.99,0,5.236-0.52,6.738-1.572c1.496-1.046,3.145-3.664,4.941-7.861
		c8.381-17.667,36.682-85.948,84.902-204.844l7.637,1.797c-32.049,105.117-50.164,168.008-54.355,188.672
		c-4.197,17.969-6.289,32.049-6.289,42.227c0,5.692,2.619,16.923,7.861,33.691c5.236,16.775,7.561,32.646,6.963,47.617
		c-0.301,11.076-3.299,19.766-8.984,26.055c-5.691,6.289-13.027,9.434-22.012,9.434c-11.385,0-17.969-7.791-19.766-23.359
		c3.594-23.956,4.941-44.992,4.043-63.115c-0.898-18.116-3.895-28.82-8.984-32.119c-5.096-3.889-12.43-6.289-22.012-7.188V813.071z
		 M596.262,530.512l3.594-3.594c38.332,4.492,62.59,16.621,72.773,36.387c6.289,11.981,5.84,22.236-1.348,30.771
		s-16.621,9.813-28.301,3.818c-0.898-0.295-1.648-0.744-2.246-1.348c-2.996-10.781-8.76-22.307-17.295-34.59
		C614.904,549.681,605.844,539.202,596.262,530.512z M912.063,557.465l11.23-16.621c8.086-11.076,13.027-16.621,14.824-16.621
		c2.99,0,10.781,5.692,23.359,17.07c12.578,11.385,18.867,18.72,18.867,22.012c-1.199,4.794-5.242,7.188-12.129,7.188H872.98v66.934
		h40.879l8.984-12.129c6.584-7.784,10.781-11.68,12.578-11.68c2.99,0,10.178,4.492,21.563,13.477
		c11.379,8.984,17.07,15.126,17.07,18.418c-4.197,4.794-10.332,7.938-18.418,9.434v168.008c0.598,38.036,1.797,74.121,3.594,108.262
		c-2.098,3.292-6.59,6.514-13.477,9.658c-6.893,3.145-14.676,4.717-23.359,4.717c-5.691,0-8.535-3.145-8.535-9.434
		c0.598-4.492,1.348-10.332,2.246-17.52v-13.477H740.012v10.332c0.898,11.378,1.496,17.667,1.797,18.867
		c-1.199,3.292-4.793,6.437-10.781,9.434c-5.994,2.99-13.328,4.492-22.012,4.492c-2.996,0-5.691-0.898-8.086-2.695
		c-2.4-1.797-3.594-3.896-3.594-6.289c2.695-39.229,4.338-79.21,4.941-119.941V711.997c0-38.633-1.951-70.078-5.84-94.336
		l48.965,19.766h28.75v-66.934h-28.301c-14.979,0.302-32.498,2.548-52.559,6.738l-12.129-23.809
		c20.363,2.4,40.725,3.748,61.094,4.043H912.063z M740.012,794.653v18.867h176.094v-47.168c-8.387,0.604-16.473,0.898-24.258,0.898
		h-21.113c-13.182,0-21.717-2.246-25.605-6.738c-3.895-4.492-5.84-12.873-5.84-25.156v-84.902h-30.547v8.535
		c0,14.979-0.674,27.852-2.021,38.633s-4.119,22.538-8.311,35.264c-4.197,12.732-11.082,24.335-20.664,34.814
		c-9.588,10.486-21.717,19.92-36.387,28.301L740.012,794.653z M740.012,787.016c14.074-15.87,23.283-33.839,27.627-53.906
		c4.338-20.061,6.514-44.62,6.514-73.672v-8.984h-34.141V787.016z M740.012,826.997v64.688h176.094v-64.688H740.012z
		 M808.742,570.493v66.934h30.547v-66.934H808.742z M872.98,650.454v74.121c0,5.391,2.695,8.086,8.086,8.086h28.75
		c2.99,0,5.09-0.147,6.289-0.449v-81.758H872.98z"/>
</g>
</svg>
